<svg xmlns="http://www.w3.org/2000/svg" viewBox="0 -20 120 156">
  <!-- BayTex Crane — Favicon / Icon Mark -->
  <!-- Background square for favicon contexts -->
  <rect x="-4" y="-24" width="128" height="164" rx="8" fill="#090909"/>

  <!-- LEFT WING -->
  <polygon points="60,50 14,20 -4,46 40,62" fill="#0ABAB5"/>
  <polygon points="40,62 -4,46 6,72 40,72"  fill="#057570"/>

  <!-- RIGHT WING -->
  <polygon points="60,50 106,20 124,46 80,62" fill="#3DCBC7"/>
  <polygon points="80,62 124,46 114,72 80,72" fill="#088880"/>

  <!-- BODY -->
  <polygon points="60,50 40,62 60,72 80,62"  fill="#057570"/>

  <!-- TAIL -->
  <polygon points="60,72 40,62 44,96 60,101" fill="#0ABAB5"/>
  <polygon points="60,72 80,62 76,96 60,101" fill="#088880"/>
  <polygon points="44,96 60,101 76,96 60,116" fill="#057570"/>

  <!-- NECK -->
  <polygon points="60,50 53,34 55,20 60,18"  fill="#088880"/>
  <polygon points="60,50 67,34 65,20 60,18"  fill="#0ABAB5"/>

  <!-- HEAD -->
  <polygon points="60,18 53,10 60,4"          fill="#0ABAB5"/>
  <polygon points="60,18 67,10 60,4"          fill="#3DCBC7"/>
  <polygon points="53,10 67,10 60,4"          fill="#057570"/>

  <!-- BEAK -->
  <polygon points="53,10 60,4 57,-6"          fill="#0ABAB5"/>
  <polygon points="67,10 60,4 63,-6"          fill="#088880"/>
  <polygon points="57,-6 63,-6 60,-16"        fill="#057570"/>
</svg>
